<svg width="25" height="25" viewBox="0 0 25 25" fill="none" xmlns="http://www.w3.org/2000/svg">
<path d="M11.1953 4.8718C11.4259 4.87143 11.6833 4.8718 11.9725 4.8718C14.2859 4.8718 14.5601 4.8801 15.4736 4.92161C16.3184 4.96024 16.7768 5.1014 17.0823 5.21999C17.4866 5.37703 17.7749 5.56475 18.0779 5.868C18.3812 6.17125 18.5689 6.46006 18.7263 6.86439C18.8449 7.16945 18.9862 7.62793 19.0247 8.47269C19.0662 9.38605 19.0752 9.66042 19.0752 11.9727C19.0752 14.285 19.0662 14.5593 19.0247 15.4727C18.986 16.3175 18.8449 16.7759 18.7263 17.081C18.5693 17.4853 18.3812 17.7732 18.0779 18.0763C17.7747 18.3795 17.4868 18.5673 17.0823 18.7243C16.7772 18.8434 16.3184 18.9842 15.4736 19.0229C14.5602 19.0644 14.2859 19.0734 11.9725 19.0734C9.65898 19.0734 9.38479 19.0644 8.47143 19.0229C7.62667 18.9839 7.16818 18.8427 6.86259 18.7241C6.45826 18.5671 6.16945 18.3794 5.8662 18.0761C5.56295 17.7729 5.37522 17.4848 5.21782 17.0803C5.09923 16.7752 4.9579 16.3167 4.91945 15.472C4.87793 14.5586 4.86963 14.2842 4.86963 11.9705C4.86963 9.65681 4.87793 9.38389 4.91945 8.47053C4.95808 7.62576 5.09923 7.16728 5.21782 6.86187C5.37486 6.45753 5.56295 6.16873 5.8662 5.86548C6.16945 5.56223 6.45826 5.3745 6.86259 5.2171C7.168 5.09797 7.62667 4.95717 8.47143 4.91837C9.27071 4.88226 9.58046 4.87143 11.1953 4.86963V4.8718Z" fill="white"/>
<path d="M16.5973 6.31091C16.0233 6.31091 15.5576 6.77607 15.5576 7.35026C15.5576 7.92426 16.0233 8.38997 16.5973 8.38997C17.1713 8.38997 17.637 7.92426 17.637 7.35026C17.637 6.77625 17.1713 6.31055 16.5973 6.31055V6.31091Z" fill="#272B31"/>
<path d="M11.9726 9.08643C13.5675 9.08643 14.8606 10.3794 14.8606 11.9745C14.8606 13.5695 13.5675 14.8626 11.9726 14.8626C10.3774 14.8626 9.08447 13.5695 9.08447 11.9745C9.08447 10.3794 10.3774 9.08643 11.9726 9.08643V9.08643Z" fill="#272B31"/>
</svg>
