<svg width="25" height="25" viewBox="0 0 25 25" fill="none" xmlns="http://www.w3.org/2000/svg">
<path d="M12.9939 17.0076C12.9939 17.0076 13.2795 16.9777 13.4258 16.8293C13.5597 16.6935 13.5551 16.437 13.5551 16.437C13.5551 16.437 13.5373 15.2396 14.1263 15.0628C14.7068 14.8889 15.4523 16.2208 16.2433 16.7329C16.8409 17.1201 17.2945 17.0354 17.2945 17.0354L19.4085 17.0076C19.4085 17.0076 20.5138 16.9433 19.9898 16.1229C19.9464 16.0557 19.684 15.5157 18.4184 14.4067C17.0925 13.2458 17.2705 13.4336 18.8666 11.4252C19.8388 10.2022 20.2274 9.45554 20.1059 9.13627C19.9905 8.83089 19.2753 8.91198 19.2753 8.91198L16.8959 8.92587C16.8959 8.92587 16.7194 8.90322 16.5886 8.97701C16.4609 9.04933 16.378 9.2181 16.378 9.2181C16.378 9.2181 16.0018 10.1642 15.4995 10.9693C14.4398 12.6672 14.0164 12.7571 13.843 12.6519C13.4397 12.4056 13.5403 11.6641 13.5403 11.1373C13.5403 9.49134 13.8051 8.80532 13.0256 8.62779C12.7671 8.56861 12.5767 8.52989 11.9148 8.52331C11.0657 8.51528 10.3474 8.52623 9.94022 8.714C9.6693 8.83893 9.46031 9.11801 9.58803 9.13408C9.74516 9.15381 10.1012 9.22467 10.2901 9.46723C10.5339 9.78065 10.5254 10.4835 10.5254 10.4835C10.5254 10.4835 10.6655 12.421 10.198 12.6614C9.87752 12.8265 9.43786 12.4897 8.49274 10.9489C8.00895 10.1598 7.6436 9.28751 7.6436 9.28751C7.6436 9.28751 7.57316 9.12458 7.44699 9.03691C7.2945 8.93098 7.08164 8.8981 7.08164 8.8981L4.82062 8.91198C4.82062 8.91198 4.48081 8.92075 4.35619 9.06029C4.2455 9.18376 4.34768 9.4402 4.34768 9.4402C4.34768 9.4402 6.11794 13.3496 8.12274 15.32C9.96112 17.126 12.048 17.0076 12.048 17.0076H12.9939Z" fill="white"/>
</svg>
