<svg width="59" height="44" viewBox="0 0 59 44" fill="none" xmlns="http://www.w3.org/2000/svg">
<path d="M4.61743 18.0555C4.61743 13.1726 4.61743 8.2897 4.61743 3.40604C7.03148 3.28207 9.21886 3.22009 11.1788 3.22009C13.6337 3.22009 15.4599 3.71519 16.6567 4.70613C17.8535 5.69707 18.452 6.99717 18.452 8.60717C18.452 10.7538 17.6269 12.3638 15.9759 13.4372V13.4992C16.863 13.8295 17.6004 14.4122 18.189 15.2482C18.7769 16.0842 19.0708 17.1523 19.0708 18.4524C19.0708 20.6406 18.3122 22.302 16.7957 23.4373C16.6643 23.5363 16.5283 23.6301 16.39 23.72C15.2453 23.7548 14.1006 23.7948 12.9567 23.8402C10.1686 23.9498 7.36318 24.0821 4.58267 24.3202C3.68429 24.3973 2.0379 24.5212 0.745117 24.7994C4.14142 21.9815 4.61743 22.652 4.61743 18.054V18.0555ZM11.4878 16.255H9.56869V20.311C10.0228 20.435 10.5797 20.497 11.24 20.497C13.1592 20.497 14.118 19.7328 14.118 18.2059C14.118 16.9059 13.2408 16.255 11.4871 16.255H11.4878ZM11.1169 7.86491C10.8282 7.86491 10.3122 7.90648 9.56945 7.98887V11.9209H11.2098C12.7368 11.9209 13.4999 11.2195 13.4999 9.8158C13.4999 9.19675 13.268 8.71677 12.8033 8.37587C12.3386 8.03498 11.7765 7.86491 11.1169 7.86491ZM36.5676 19.1659L38.455 22.881C38.1339 23.2423 37.7372 23.5703 37.265 23.8659C34.0205 23.6996 30.767 23.5991 27.4992 23.5477C26.5766 23.5333 25.6503 23.5348 24.7232 23.5439C24.1822 23.1841 23.6737 22.7721 23.1977 22.3073C21.0934 20.2536 20.0409 17.5446 20.0409 14.1802C20.0409 10.9186 21.0315 8.23528 23.0118 6.13019C24.9922 4.02509 27.778 2.97217 31.3677 2.97217C32.7504 2.97217 34.0296 3.18381 35.2053 3.60634C36.3809 4.02963 37.3095 4.57159 37.9903 5.23146L35.7931 8.94655C34.3281 8.05916 32.8532 7.61547 31.367 7.61547C29.6133 7.61547 28.1641 8.19371 27.0186 9.34943C25.8732 10.5052 25.3012 12.1152 25.3012 14.1794C25.3012 16.0993 25.9095 17.6731 27.1274 18.9006C28.3447 20.1289 29.9231 20.7426 31.8626 20.7426C33.5959 20.7426 35.1637 20.2166 36.5668 19.1636L36.5676 19.1659Z" fill="white"/>
<path d="M55.6801 18.8721L57.2457 22.7164C55.7942 23.9485 54.0375 24.752 51.9748 25.1277C49.2011 24.7837 46.4266 24.5056 43.6484 24.2834C42.5755 23.7875 41.6129 23.1231 40.7606 22.2901C35.7421 17.383 41.1006 15.8358 33.4746 15.8358C39.0258 11.0904 37.2532 9.74724 40.6888 6.17803C40.9714 5.88475 41.2668 5.61113 41.5751 5.35791C41.8479 5.67764 42.2173 5.88853 42.6488 6.0329C43.7345 6.39496 44.9646 6.60661 46.098 6.77138L46.1161 6.77441L47.6303 6.92785L47.6612 6.92861C47.6998 6.92936 47.7368 6.92861 47.7587 6.92709C48.2778 6.97018 49.0832 6.99815 49.5902 6.93994C49.6167 6.94146 49.6612 6.94372 49.7066 6.94221C49.7625 6.9407 49.8154 6.93541 49.869 6.92709C50.8256 6.91651 52.07 6.71167 53.0114 6.52346C53.6575 6.39421 54.7953 6.15838 55.3582 5.87341C55.5388 5.78195 55.6983 5.67462 55.838 5.54914C55.9113 5.61491 55.9854 5.68218 56.0579 5.75096C58.0186 7.60208 58.9993 9.98307 58.9993 12.8939C58.9993 14.0958 58.889 15.0769 58.6669 15.8365H51.498H43.2487C43.4701 17.4186 44.166 18.6446 45.3363 19.5146C46.5067 20.3846 47.9453 20.82 49.6537 20.82C52.0572 20.82 54.0655 20.1714 55.6786 18.8744L55.6801 18.8721ZM48.6586 7.52952C45.5592 7.52952 43.693 9.07981 43.0606 12.1804H51.4995H53.5449C53.5766 10.8516 53.1497 9.74422 52.2642 8.85834C51.3786 7.97246 50.1765 7.52952 48.6586 7.52952V7.52952Z" fill="white"/>
<path fill-rule="evenodd" clip-rule="evenodd" d="M43.9694 2.99215C43.4217 2.83796 42.932 2.68225 42.4402 3.05338C41.9974 3.38823 41.8425 3.94606 42.0442 4.47895C42.1991 4.88938 42.524 5.08213 42.9215 5.21516C43.8999 5.5417 45.1814 5.76695 46.2226 5.91812L47.6876 6.06627C47.7284 6.06703 47.7737 6.06325 47.8145 6.06627C48.1644 6.09499 49.201 6.11691 49.5153 6.08139C49.5713 6.07534 49.6279 6.08139 49.6838 6.07988C49.7556 6.07761 49.7617 6.06551 49.8387 6.06476C50.5724 6.05947 52.1326 5.81986 52.8467 5.677C53.2554 5.59536 54.5943 5.29453 54.9751 5.10254C55.2894 4.94381 55.4889 4.72082 55.5992 4.36859C55.8334 3.61952 55.2456 2.82435 54.5361 2.82435C54.144 2.82435 53.9679 2.90523 53.6309 2.99442C52.4915 3.77599 45.5025 3.94228 43.9717 2.9914L43.9694 2.99215Z" fill="white"/>
<path fill-rule="evenodd" clip-rule="evenodd" d="M13.3298 27.6633C21.8942 26.7034 33.3782 26.2279 42.2357 26.6066C44.4972 26.7034 57.5603 27.9491 58.1746 27.7503C47.6366 26.0322 37.7257 25.4267 27.4726 25.2665C23.2588 25.2007 2.25237 25.6127 0.187392 26.7608C-0.0823472 27.3164 0.0234329 28.6006 0.00756588 29.4464L13.3313 27.6626L13.3298 27.6633Z" fill="#F2C94C"/>
<path d="M18.727 38.917C18.1542 37.9223 17.5785 36.923 17.0088 35.92C16.4413 34.9207 15.8679 33.9215 15.2997 32.9162C16.4701 31.5201 17.6397 30.1452 18.8138 28.7838C17.685 28.8934 16.5569 29.0091 15.4281 29.1368C14.8516 29.8519 14.2736 30.5692 13.7024 31.2979C13.1289 32.0288 12.5532 32.7642 11.9804 33.5005C11.9804 32.8444 11.9804 32.1875 11.9804 31.5314C11.9804 30.8753 11.9804 30.2185 11.9804 29.5624C11.0511 29.6932 10.1217 29.8262 9.19238 29.96C9.19238 31.7083 9.19238 33.4551 9.19238 35.2019C9.19238 36.9487 9.19238 38.6933 9.19238 40.4401C10.1217 40.2655 11.0511 40.0924 11.9804 39.9231C11.9804 38.8278 11.9804 37.7341 11.9804 36.6373C12.4247 36.1135 12.8728 35.5897 13.3208 35.0674C13.7024 35.7824 14.0847 36.4929 14.4655 37.205C14.8471 37.9185 15.2332 38.6305 15.6193 39.3388C16.6521 39.1869 17.6896 39.05 18.727 38.9178V38.917ZM26.1376 38.5391C26.1376 39.8558 25.2203 40.7402 24.2207 40.8241C22.7723 40.945 22.0507 40.2836 22.0507 39.0999C21.1916 39.1922 20.3333 39.2859 19.4742 39.3766C19.4742 40.6812 19.8641 41.6963 20.6318 42.3358C21.3987 42.9745 22.5562 43.2413 24.0923 43.1075C25.4319 42.9911 26.6325 42.5044 27.5029 41.6971C28.3665 40.8959 28.9053 39.7621 28.9053 38.3584C28.9053 36.657 28.9053 34.9578 28.9053 33.2563C28.9053 31.5564 28.9053 29.8549 28.9053 28.1535C27.9797 28.1875 27.0586 28.2192 26.1376 28.2646C26.1376 29.2797 26.1376 30.2941 26.1376 31.3054C26.1376 32.3168 26.1376 33.3319 26.1376 34.3433C26.1376 35.4166 25.2619 36.2541 24.0092 36.3486C22.835 36.4378 22.2419 35.8595 22.2419 34.6154C22.2419 33.5972 22.2419 32.576 22.2419 31.5579C22.2419 30.5397 22.2419 29.5185 22.2419 28.4966C21.3163 28.5684 20.3953 28.644 19.4742 28.7196C19.4742 29.8133 19.4742 30.9048 19.4742 31.997C19.4742 33.087 19.4742 34.1792 19.4742 35.2692C19.4742 37.4877 21.113 38.7417 23.3042 38.5436C24.6023 38.4265 25.7523 37.8331 26.1384 36.917C26.1384 37.4567 26.1384 37.9971 26.1384 38.5383L26.1376 38.5391ZM32.9257 38.0138C32.9257 36.7076 32.9257 35.4015 32.9257 34.0953C32.9257 32.7907 32.9257 31.4846 32.9257 30.1784C34.328 30.1777 35.7349 30.1882 37.141 30.2109C37.141 31.5224 37.141 32.833 37.141 34.1445C37.141 35.4559 37.141 36.7666 37.141 38.078C38.0417 38.1135 38.9415 38.1574 39.8467 38.2027C39.8467 36.5315 39.8467 34.8603 39.8467 33.189C39.8467 31.5178 39.8467 29.8451 39.8467 28.1723C36.6393 28.0937 33.4319 28.0756 30.2245 28.1179C30.2245 29.7755 30.2245 31.4301 30.2245 33.0862C30.2245 34.7408 30.2245 36.3969 30.2245 38.0515C31.1251 38.0349 32.025 38.0168 32.9257 38.0138V38.0138ZM43.7424 38.5051C44.4474 37.4234 45.1531 36.3335 45.8588 35.2488C46.5638 34.1641 47.2695 33.0689 47.9789 31.9676C47.9789 33.1361 47.9789 34.307 47.9789 35.474C47.9789 36.6434 47.9789 37.8134 47.9789 38.9805C48.8796 39.1098 49.7795 39.2428 50.6839 39.3751C50.6839 37.6283 50.6839 35.8837 50.6839 34.1369C50.6839 32.3901 50.6839 30.644 50.6839 28.895C49.7251 28.8073 48.767 28.7196 47.8089 28.6357C47.141 29.7015 46.4693 30.7604 45.8052 31.8119C45.1418 32.8625 44.4693 33.9147 43.8052 34.9608C43.8052 33.861 43.8052 32.759 43.8052 31.6599C43.8052 30.5601 43.8052 29.4581 43.8052 28.356C42.897 28.3008 41.988 28.26 41.0791 28.22C41.0791 29.8995 41.0791 31.576 41.0791 33.254C41.0791 34.9306 41.0791 36.6086 41.0791 38.2844C41.9669 38.3501 42.8546 38.4166 43.7424 38.5043V38.5051Z" fill="white"/>
<path fill-rule="evenodd" clip-rule="evenodd" d="M52.1615 1.67682C52.1615 2.22029 51.8865 2.57705 51.8865 2.64886C51.8865 2.68212 52.1101 3.09709 52.1434 3.1621C52.1993 3.27397 52.3761 3.59067 52.3995 3.69347L50.6035 3.85901L50.4872 3.55288C50.4154 3.41683 50.3829 3.38886 50.2076 3.3556C49.9038 3.29815 49.6054 3.15152 49.3621 2.9497C49.5465 2.63904 49.656 2.28756 49.656 1.91491C49.656 1.24446 49.6915 1.00258 49.3447 0.409224C49.6817 0.105364 50.1245 -0.0306921 50.6224 0.00785719C50.908 0.0297774 50.942 0.0328008 51.2382 0.180195C51.452 0.286773 51.5397 0.369918 51.6983 0.527139C51.9386 0.765238 52.1607 1.20591 52.1607 1.67757L52.1615 1.67682Z" fill="white"/>
<path fill-rule="evenodd" clip-rule="evenodd" d="M45.4441 1.67684C45.4441 2.22031 45.7191 2.57708 45.7191 2.64814C45.7191 2.68139 45.4954 3.09637 45.4622 3.16137C45.4063 3.27324 45.2295 3.58995 45.2061 3.69275L47.0021 3.85828L47.1184 3.55215C47.1902 3.4161 47.2227 3.38813 47.398 3.35487C48.1105 3.21882 48.7988 2.59371 48.7988 1.91419C48.7988 1.35333 48.857 1.26036 48.5782 0.796257C48.2336 0.222552 47.6586 -0.0457812 46.9832 0.00637378C46.6976 0.028294 46.6636 0.0313174 46.3674 0.178712C46.1535 0.285289 46.0659 0.368435 45.9072 0.525656C45.667 0.76451 45.4448 1.20443 45.4448 1.67609L45.4441 1.67684Z" fill="white"/>
</svg>
