<svg width="24" height="24" viewBox="0 0 24 24" fill="none" xmlns="http://www.w3.org/2000/svg">
<g clip-path="url(#clip0_1_1783)">
<path d="M19.5003 13.5722L12.0003 21.0002L4.5003 13.5722C4.00561 13.0908 3.61594 12.5122 3.35585 11.8728C3.09575 11.2334 2.97086 10.5471 2.98904 9.85711C3.00721 9.16709 3.16806 8.48831 3.46146 7.86351C3.75485 7.23871 4.17444 6.68143 4.69379 6.22676C5.21314 5.77208 5.82101 5.42987 6.47911 5.22166C7.13722 5.01345 7.83131 4.94376 8.51767 5.01698C9.20403 5.0902 9.8678 5.30473 10.4672 5.64708C11.0666 5.98943 11.5886 6.45218 12.0003 7.00618C12.4138 6.4562 12.9364 5.9975 13.5354 5.65878C14.1344 5.32007 14.7968 5.10863 15.4812 5.0377C16.1657 4.96677 16.8574 5.03787 17.5131 5.24657C18.1688 5.45526 18.7743 5.79705 19.2919 6.25054C19.8094 6.70403 20.2277 7.25946 20.5207 7.88207C20.8137 8.50468 20.975 9.18106 20.9946 9.86889C21.0142 10.5567 20.8916 11.2412 20.6344 11.8794C20.3773 12.5177 19.9912 13.096 19.5003 13.5782" stroke="white" stroke-width="1.5" stroke-linecap="round" stroke-linejoin="round"/>
</g>
<defs>
<clipPath id="clip0_1_1783">
<rect width="24" height="24" fill="white"/>
</clipPath>
</defs>
</svg>
