<svg width="20" height="20" viewBox="0 0 20 20" fill="none" xmlns="http://www.w3.org/2000/svg">
<g clip-path="url(#clip0_1_231)">
<path d="M16.6667 6.66659H3.33333C2.8731 6.66659 2.5 7.03969 2.5 7.49993V9.16659C2.5 9.62683 2.8731 9.99993 3.33333 9.99993H16.6667C17.1269 9.99993 17.5 9.62683 17.5 9.16659V7.49993C17.5 7.03969 17.1269 6.66659 16.6667 6.66659Z" stroke="#0DD351" stroke-width="1.25" stroke-linecap="round" stroke-linejoin="round"/>
<path d="M10 6.66659V17.4999" stroke="#0DD351" stroke-width="1.25" stroke-linecap="round" stroke-linejoin="round"/>
<path d="M15.8307 10V15.8333C15.8307 16.2754 15.6551 16.6993 15.3426 17.0118C15.03 17.3244 14.6061 17.5 14.1641 17.5H5.83073C5.3887 17.5 4.96478 17.3244 4.65222 17.0118C4.33966 16.6993 4.16406 16.2754 4.16406 15.8333V10" stroke="#0DD351" stroke-width="1.25" stroke-linecap="round" stroke-linejoin="round"/>
<path d="M6.2474 6.66654C5.69486 6.66654 5.16496 6.44705 4.77426 6.05635C4.38356 5.66565 4.16406 5.13574 4.16406 4.58321C4.16406 4.03068 4.38356 3.50077 4.77426 3.11007C5.16496 2.71937 5.69486 2.49988 6.2474 2.49988C7.0513 2.48587 7.83908 2.87593 8.50801 3.61918C9.17694 4.36243 9.69596 5.42438 9.9974 6.66654C10.2988 5.42438 10.8179 4.36243 11.4868 3.61918C12.1557 2.87593 12.9435 2.48587 13.7474 2.49988C14.2999 2.49988 14.8298 2.71937 15.2205 3.11007C15.6112 3.50077 15.8307 4.03068 15.8307 4.58321C15.8307 5.13574 15.6112 5.66565 15.2205 6.05635C14.8298 6.44705 14.2999 6.66654 13.7474 6.66654" stroke="#0DD351" stroke-width="1.25" stroke-linecap="round" stroke-linejoin="round"/>
</g>
<defs>
<clipPath id="clip0_1_231">
<rect width="20" height="20" fill="white"/>
</clipPath>
</defs>
</svg>
