<svg width="20" height="21" viewBox="0 0 20 21" fill="none" xmlns="http://www.w3.org/2000/svg">
<g id="Frame" clip-path="url(#clip0_20_834)">
<path id="Vector" d="M10 6.93835V10.2716L11.6666 11.9383" stroke="#181B20" stroke-width="1.24998" stroke-linecap="round" stroke-linejoin="round"/>
<path id="Vector_2" d="M2.5415 9.43835C2.72824 7.60509 3.58337 5.90475 4.94374 4.66173C6.30411 3.41871 8.0745 2.72002 9.91712 2.69898C11.7597 2.67793 13.5456 3.33599 14.934 4.54762C16.3224 5.75924 17.2162 7.43961 17.4447 9.26813C17.6733 11.0966 17.2207 12.9453 16.1733 14.4614C15.1258 15.9775 13.5569 17.0549 11.7658 17.4881C9.97465 17.9213 8.08676 17.6799 6.46227 16.81C4.83779 15.94 3.59042 14.5025 2.95816 12.7716M2.5415 16.9382V12.7716H6.70811" stroke="#181B20" stroke-width="1.24998" stroke-linecap="round" stroke-linejoin="round"/>
</g>
<defs>
<clipPath id="clip0_20_834">
<rect width="19.9997" height="19.9997" fill="white" transform="translate(0 0.271484)"/>
</clipPath>
</defs>
</svg>
