<svg width="20" height="21" viewBox="0 0 20 21" fill="none" xmlns="http://www.w3.org/2000/svg">
<g clip-path="url(#clip0_20_815)">
<path d="M14.1654 9.71167H5.83217C4.91171 9.71167 4.16553 10.4579 4.16553 11.3783V16.3782C4.16553 17.2987 4.91171 18.0449 5.83217 18.0449H14.1654C15.0858 18.0449 15.832 17.2987 15.832 16.3782V11.3783C15.832 10.4579 15.0858 9.71167 14.1654 9.71167Z" stroke="#181B20" stroke-width="1.24998" stroke-linecap="round" stroke-linejoin="round"/>
<path d="M10.0008 14.7116C10.461 14.7116 10.8341 14.3385 10.8341 13.8782C10.8341 13.418 10.461 13.0449 10.0008 13.0449C9.54057 13.0449 9.16748 13.418 9.16748 13.8782C9.16748 14.3385 9.54057 14.7116 10.0008 14.7116Z" stroke="#181B20" stroke-width="1.24998" stroke-linecap="round" stroke-linejoin="round"/>
<path d="M6.6665 9.71149V6.3782C6.6665 5.49416 7.01769 4.64633 7.6428 4.02122C8.26791 3.39611 9.11574 3.04492 9.99979 3.04492C10.8838 3.04492 11.7317 3.39611 12.3568 4.02122C12.9819 4.64633 13.3331 5.49416 13.3331 6.3782V9.71149" stroke="#181B20" stroke-width="1.24998" stroke-linecap="round" stroke-linejoin="round"/>
</g>
<defs>
<clipPath id="clip0_20_815">
<rect width="19.9997" height="19.9997" fill="white" transform="translate(0 0.544922)"/>
</clipPath>
</defs>
</svg>
