<svg width="20" height="21" viewBox="0 0 20 21" fill="none" xmlns="http://www.w3.org/2000/svg">
<g clip-path="url(#clip0_20_838)">
<path d="M16.2494 11.6719L9.99948 17.8618L3.74958 11.6719C3.33734 11.2707 3.01263 10.7886 2.79589 10.2558C2.57914 9.72297 2.47507 9.15106 2.49021 8.57605C2.50536 8.00105 2.6394 7.43541 2.88389 6.91475C3.12838 6.39409 3.47803 5.92969 3.91082 5.55081C4.3436 5.17192 4.85015 4.88674 5.39856 4.71324C5.94698 4.53973 6.52538 4.48166 7.09734 4.54267C7.6693 4.60369 8.22243 4.78246 8.7219 5.06775C9.22137 5.35304 9.65636 5.73865 9.99948 6.20031C10.3441 5.742 10.7796 5.35976 11.2787 5.0775C11.7778 4.79524 12.3299 4.61904 12.9002 4.55994C13.4706 4.50083 14.047 4.56009 14.5934 4.73399C15.1398 4.9079 15.6444 5.19272 16.0757 5.57062C16.5069 5.94853 16.8556 6.41138 17.0997 6.93021C17.3439 7.44904 17.4783 8.01269 17.4946 8.58587C17.5109 9.15904 17.4088 9.72942 17.1945 10.2613C16.9802 10.7932 16.6585 11.2751 16.2494 11.6769" stroke="#181B20" stroke-width="1.24998" stroke-linecap="round" stroke-linejoin="round"/>
</g>
<defs>
<clipPath id="clip0_20_838">
<rect width="19.9997" height="19.9997" fill="white" transform="translate(0 0.362305)"/>
</clipPath>
</defs>
</svg>
