<svg width="20" height="21" viewBox="0 0 20 21" fill="none" xmlns="http://www.w3.org/2000/svg">
<rect width="20" height="21" fill="#1E1E1E"/>
<g id=" &#208;&#148;&#208;&#176;&#208;&#189;&#208;&#189;&#209;&#139;&#208;&#181; &#209;&#131;&#209;&#135;&#208;&#181;&#209;&#130;&#208;&#189;&#208;&#190;&#208;&#185; &#208;&#183;&#208;&#176;&#208;&#191;&#208;&#184;&#209;&#129;&#208;&#184; (&#209;&#128;&#208;&#181;&#208;&#180;&#208;&#176;&#208;&#186;&#209;&#130;&#208;&#184;&#209;&#128;&#208;&#190;&#208;&#178;&#208;&#176;&#208;&#189;&#208;&#184;&#208;&#181;)" clip-path="url(#clip0_0_1)">
<rect width="1800" height="1404" transform="translate(-361 -331)" fill="#F6F8FA"/>
<g id="&#208;&#156;&#208;&#190;&#208;&#185; &#208;&#191;&#209;&#128;&#208;&#190;&#209;&#132;&#208;&#184;&#208;&#187;&#209;&#140;">
<g id="Group 980">
<g id="Group 960">
<g id="Rectangle 434" filter="url(#filter0_d_0_1)">
<rect x="-16" y="-165" width="255" height="235" rx="5" fill="white"/>
<rect x="-15.5" y="-164.5" width="254" height="234" rx="4.5" stroke="#EEF4F8"/>
</g>
<g id="Group 959">
<g id="Frame" clip-path="url(#clip1_0_1)">
<path id="Vector" d="M15.8341 4.80151H4.16762C3.24716 4.80151 2.50098 5.54769 2.50098 6.46815V14.8014C2.50098 15.7218 3.24716 16.468 4.16762 16.468H15.8341C16.7546 16.468 17.5007 15.7218 17.5007 14.8014V6.46815C17.5007 5.54769 16.7546 4.80151 15.8341 4.80151Z" stroke="#181B20" stroke-width="1.24998" stroke-linecap="round" stroke-linejoin="round"/>
<path id="Vector_2" d="M2.50098 6.46814L10.0009 11.4681L17.5007 6.46814" stroke="#181B20" stroke-width="1.24998" stroke-linecap="round" stroke-linejoin="round"/>
</g>
</g>
</g>
</g>
</g>
</g>
<defs>
<filter id="filter0_d_0_1" x="-20" y="-165" width="263" height="243" filterUnits="userSpaceOnUse" color-interpolation-filters="sRGB">
<feFlood flood-opacity="0" result="BackgroundImageFix"/>
<feColorMatrix in="SourceAlpha" type="matrix" values="0 0 0 0 0 0 0 0 0 0 0 0 0 0 0 0 0 0 127 0" result="hardAlpha"/>
<feOffset dy="4"/>
<feGaussianBlur stdDeviation="2"/>
<feComposite in2="hardAlpha" operator="out"/>
<feColorMatrix type="matrix" values="0 0 0 0 0.175747 0 0 0 0 0.199192 0 0 0 0 0.220833 0 0 0 0.03 0"/>
<feBlend mode="normal" in2="BackgroundImageFix" result="effect1_dropShadow_0_1"/>
<feBlend mode="normal" in="SourceGraphic" in2="effect1_dropShadow_0_1" result="shape"/>
</filter>
<clipPath id="clip0_0_1">
<rect width="1800" height="1404" fill="white" transform="translate(-361 -331)"/>
</clipPath>
<clipPath id="clip1_0_1">
<rect width="19.9997" height="19.9997" fill="white" transform="translate(0 0.634766)"/>
</clipPath>
</defs>
</svg>
