<svg width="20" height="20" viewBox="0 0 20 20" fill="none" xmlns="http://www.w3.org/2000/svg">
<g clip-path="url(#clip0_20_829)">
<path d="M10.0009 17.4998C14.1429 17.4998 17.5007 14.142 17.5007 9.99988C17.5007 5.85781 14.1429 2.5 10.0009 2.5C5.85879 2.5 2.50098 5.85781 2.50098 9.99988C2.50098 14.142 5.85879 17.4998 10.0009 17.4998Z" stroke="#3D7BF3" stroke-width="1.24998" stroke-linecap="round" stroke-linejoin="round"/>
<path d="M9.99899 10.8332C11.3797 10.8332 12.4989 9.7139 12.4989 8.33321C12.4989 6.95252 11.3797 5.83325 9.99899 5.83325C8.61829 5.83325 7.49902 6.95252 7.49902 8.33321C7.49902 9.7139 8.61829 10.8332 9.99899 10.8332Z" stroke="#3D7BF3" stroke-width="1.24998" stroke-linecap="round" stroke-linejoin="round"/>
<path d="M5.13916 15.7074C5.34541 15.0209 5.76746 14.4192 6.34268 13.9916C6.9179 13.5639 7.61566 13.333 8.33244 13.3333H11.6657C12.3834 13.333 13.082 13.5644 13.6577 13.9931C14.2333 14.4217 14.6552 15.0247 14.8607 15.7124" stroke="#3D7BF3" stroke-width="1.24998" stroke-linecap="round" stroke-linejoin="round"/>
</g>
<defs>
<clipPath id="clip0_20_829">
<rect width="19.9997" height="19.9997" fill="white"/>
</clipPath>
</defs>
</svg>
