<svg width="0" height="0" class="hidden">
  <symbol xmlns="http://www.w3.org/2000/svg" viewBox="0 0 20 21" id="sidebar_email">
    <rect width="20" height="21"></rect>
    <g id=" Данные учетной записи (редактирование)" clip-path="url(#clip0_0_1)">
      <rect width="1800" height="1404" transform="translate(-361 -331)"></rect>
      <g id="Мой профиль">
        <g id="Group 980">
          <g id="Group 960">
            <g id="Rectangle 434" filter="url(#filter0_d_0_1)">
              <rect x="-16" y="-165" width="255" height="235" rx="5"></rect>
              <rect x="-15.5" y="-164.5" width="254" height="234" rx="4.5"></rect>
            </g>
            <g id="Group 959">
              <g id="Frame" clip-path="url(#clip1_0_1)">
                <path id="Vector" d="M15.8341 4.80151H4.16762C3.24716 4.80151 2.50098 5.54769 2.50098 6.46815V14.8014C2.50098 15.7218 3.24716 16.468 4.16762 16.468H15.8341C16.7546 16.468 17.5007 15.7218 17.5007 14.8014V6.46815C17.5007 5.54769 16.7546 4.80151 15.8341 4.80151Z" stroke-width="1.24998" stroke-linecap="round" stroke-linejoin="round"></path>
                <path id="Vector_2" d="M2.50098 6.46814L10.0009 11.4681L17.5007 6.46814" stroke-width="1.24998" stroke-linecap="round" stroke-linejoin="round"></path>
              </g>
            </g>
          </g>
        </g>
      </g>
    </g>
    <defs>
      <filter id="filter0_d_0_1" x="-20" y="-165" width="263" height="243" filterUnits="userSpaceOnUse" color-interpolation-filters="sRGB">
        <feFlood flood-opacity="0" result="BackgroundImageFix"></feFlood>
        <feColorMatrix in="SourceAlpha" type="matrix" values="0 0 0 0 0 0 0 0 0 0 0 0 0 0 0 0 0 0 127 0" result="hardAlpha"></feColorMatrix>
        <feOffset dy="4"></feOffset>
        <feGaussianBlur stdDeviation="2"></feGaussianBlur>
        <feComposite in2="hardAlpha" operator="out"></feComposite>
        <feColorMatrix type="matrix" values="0 0 0 0 0.175747 0 0 0 0 0.199192 0 0 0 0 0.220833 0 0 0 0.03 0"></feColorMatrix>
        <feBlend mode="normal" in2="BackgroundImageFix" result="effect1_dropShadow_0_1"></feBlend>
        <feBlend mode="normal" in="SourceGraphic" in2="effect1_dropShadow_0_1" result="shape"></feBlend>
      </filter>
      <clipPath id="clip0_0_1">
        <rect width="1800" height="1404" transform="translate(-361 -331)"></rect>
      </clipPath>
      <clipPath id="clip1_0_1">
        <rect width="19.9997" height="19.9997" transform="translate(0 0.634766)"></rect>
      </clipPath>
    </defs>
  </symbol>
  <symbol xmlns="http://www.w3.org/2000/svg" viewBox="0 0 20 21" id="sidebar_favorite">
    <g clip-path="url(#clip0_20_838)">
      <path d="M16.2494 11.6719L9.99948 17.8618L3.74958 11.6719C3.33734 11.2707 3.01263 10.7886 2.79589 10.2558C2.57914 9.72297 2.47507 9.15106 2.49021 8.57605C2.50536 8.00105 2.6394 7.43541 2.88389 6.91475C3.12838 6.39409 3.47803 5.92969 3.91082 5.55081C4.3436 5.17192 4.85015 4.88674 5.39856 4.71324C5.94698 4.53973 6.52538 4.48166 7.09734 4.54267C7.6693 4.60369 8.22243 4.78246 8.7219 5.06775C9.22137 5.35304 9.65636 5.73865 9.99948 6.20031C10.3441 5.742 10.7796 5.35976 11.2787 5.0775C11.7778 4.79524 12.3299 4.61904 12.9002 4.55994C13.4706 4.50083 14.047 4.56009 14.5934 4.73399C15.1398 4.9079 15.6444 5.19272 16.0757 5.57062C16.5069 5.94853 16.8556 6.41138 17.0997 6.93021C17.3439 7.44904 17.4783 8.01269 17.4946 8.58587C17.5109 9.15904 17.4088 9.72942 17.1945 10.2613C16.9802 10.7932 16.6585 11.2751 16.2494 11.6769" stroke-width="1.24998" stroke-linecap="round" stroke-linejoin="round"></path>
    </g>
    <defs>
      <clipPath id="clip0_20_838">
        <rect width="19.9997" height="19.9997" transform="translate(0 0.362305)"></rect>
      </clipPath>
    </defs>
  </symbol>
  <symbol xmlns="http://www.w3.org/2000/svg" viewBox="0 0 20 21" id="sidebar_history">
    <g id="Frame" clip-path="url(#clip0_20_834)">
      <path id="Vector" d="M10 6.93835V10.2716L11.6666 11.9383" stroke-width="1.24998" stroke-linecap="round" stroke-linejoin="round"></path>
      <path id="Vector_2" d="M2.5415 9.43835C2.72824 7.60509 3.58337 5.90475 4.94374 4.66173C6.30411 3.41871 8.0745 2.72002 9.91712 2.69898C11.7597 2.67793 13.5456 3.33599 14.934 4.54762C16.3224 5.75924 17.2162 7.43961 17.4447 9.26813C17.6733 11.0966 17.2207 12.9453 16.1733 14.4614C15.1258 15.9775 13.5569 17.0549 11.7658 17.4881C9.97465 17.9213 8.08676 17.6799 6.46227 16.81C4.83779 15.94 3.59042 14.5025 2.95816 12.7716M2.5415 16.9382V12.7716H6.70811" stroke-width="1.24998" stroke-linecap="round" stroke-linejoin="round"></path>
    </g>
    <defs>
      <clipPath id="clip0_20_834">
        <rect width="19.9997" height="19.9997" transform="translate(0 0.271484)"></rect>
      </clipPath>
    </defs>
  </symbol>
  <symbol xmlns="http://www.w3.org/2000/svg" viewBox="0 0 20 21" id="sidebar_password">
    <g clip-path="url(#clip0_20_815)">
      <path d="M14.1654 9.71167H5.83217C4.91171 9.71167 4.16553 10.4579 4.16553 11.3783V16.3782C4.16553 17.2987 4.91171 18.0449 5.83217 18.0449H14.1654C15.0858 18.0449 15.832 17.2987 15.832 16.3782V11.3783C15.832 10.4579 15.0858 9.71167 14.1654 9.71167Z" stroke-width="1.24998" stroke-linecap="round" stroke-linejoin="round"></path>
      <path d="M10.0008 14.7116C10.461 14.7116 10.8341 14.3385 10.8341 13.8782C10.8341 13.418 10.461 13.0449 10.0008 13.0449C9.54057 13.0449 9.16748 13.418 9.16748 13.8782C9.16748 14.3385 9.54057 14.7116 10.0008 14.7116Z" stroke-width="1.24998" stroke-linecap="round" stroke-linejoin="round"></path>
      <path d="M6.6665 9.71149V6.3782C6.6665 5.49416 7.01769 4.64633 7.6428 4.02122C8.26791 3.39611 9.11574 3.04492 9.99979 3.04492C10.8838 3.04492 11.7317 3.39611 12.3568 4.02122C12.9819 4.64633 13.3331 5.49416 13.3331 6.3782V9.71149" stroke-width="1.24998" stroke-linecap="round" stroke-linejoin="round"></path>
    </g>
    <defs>
      <clipPath id="clip0_20_815">
        <rect width="19.9997" height="19.9997" transform="translate(0 0.544922)"></rect>
      </clipPath>
    </defs>
  </symbol>
  <symbol xmlns="http://www.w3.org/2000/svg" viewBox="0 0 20 20" id="sidebar_personal">
    <g clip-path="url(#clip0_20_829)">
      <path d="M10.0009 17.4998C14.1429 17.4998 17.5007 14.142 17.5007 9.99988C17.5007 5.85781 14.1429 2.5 10.0009 2.5C5.85879 2.5 2.50098 5.85781 2.50098 9.99988C2.50098 14.142 5.85879 17.4998 10.0009 17.4998Z" stroke-width="1.24998" stroke-linecap="round" stroke-linejoin="round"></path>
      <path d="M9.99899 10.8332C11.3797 10.8332 12.4989 9.7139 12.4989 8.33321C12.4989 6.95252 11.3797 5.83325 9.99899 5.83325C8.61829 5.83325 7.49902 6.95252 7.49902 8.33321C7.49902 9.7139 8.61829 10.8332 9.99899 10.8332Z" stroke-width="1.24998" stroke-linecap="round" stroke-linejoin="round"></path>
      <path d="M5.13916 15.7074C5.34541 15.0209 5.76746 14.4192 6.34268 13.9916C6.9179 13.5639 7.61566 13.333 8.33244 13.3333H11.6657C12.3834 13.333 13.082 13.5644 13.6577 13.9931C14.2333 14.4217 14.6552 15.0247 14.8607 15.7124" stroke-width="1.24998" stroke-linecap="round" stroke-linejoin="round"></path>
    </g>
    <defs>
      <clipPath id="clip0_20_829">
        <rect width="19.9997" height="19.9997" ></rect>
      </clipPath>
    </defs>
  </symbol>
  <symbol xmlns="http://www.w3.org/2000/svg" xmlns:xlink="http://www.w3.org/1999/xlink" viewBox="0 0 48 48" id="galochka">
    <polygon points="40.6,12.1 17,35.7 7.4,26.1 4.6,29 17,41.3 43.4,14.9 "></polygon>
  </symbol>

  <symbol  xmlns="http://www.w3.org/2000/svg" viewBox="0 0 25 25" id="footer_instagramLogo">
    <path d="M11.1953 4.8718C11.4259 4.87143 11.6833 4.8718 11.9725 4.8718C14.2859 4.8718 14.5601 4.8801 15.4736 4.92161C16.3184 4.96024 16.7768 5.1014 17.0823 5.21999C17.4866 5.37703 17.7749 5.56475 18.0779 5.868C18.3812 6.17125 18.5689 6.46006 18.7263 6.86439C18.8449 7.16945 18.9862 7.62793 19.0247 8.47269C19.0662 9.38605 19.0752 9.66042 19.0752 11.9727C19.0752 14.285 19.0662 14.5593 19.0247 15.4727C18.986 16.3175 18.8449 16.7759 18.7263 17.081C18.5693 17.4853 18.3812 17.7732 18.0779 18.0763C17.7747 18.3795 17.4868 18.5673 17.0823 18.7243C16.7772 18.8434 16.3184 18.9842 15.4736 19.0229C14.5602 19.0644 14.2859 19.0734 11.9725 19.0734C9.65898 19.0734 9.38479 19.0644 8.47143 19.0229C7.62667 18.9839 7.16818 18.8427 6.86259 18.7241C6.45826 18.5671 6.16945 18.3794 5.8662 18.0761C5.56295 17.7729 5.37522 17.4848 5.21782 17.0803C5.09923 16.7752 4.9579 16.3167 4.91945 15.472C4.87793 14.5586 4.86963 14.2842 4.86963 11.9705C4.86963 9.65681 4.87793 9.38389 4.91945 8.47053C4.95808 7.62576 5.09923 7.16728 5.21782 6.86187C5.37486 6.45753 5.56295 6.16873 5.8662 5.86548C6.16945 5.56223 6.45826 5.3745 6.86259 5.2171C7.168 5.09797 7.62667 4.95717 8.47143 4.91837C9.27071 4.88226 9.58046 4.87143 11.1953 4.86963V4.8718Z"></path>
    <path d="M16.5973 6.31091C16.0233 6.31091 15.5576 6.77607 15.5576 7.35026C15.5576 7.92426 16.0233 8.38997 16.5973 8.38997C17.1713 8.38997 17.637 7.92426 17.637 7.35026C17.637 6.77625 17.1713 6.31055 16.5973 6.31055V6.31091Z"></path>
    <path d="M11.9726 9.08643C13.5675 9.08643 14.8606 10.3794 14.8606 11.9745C14.8606 13.5695 13.5675 14.8626 11.9726 14.8626C10.3774 14.8626 9.08447 13.5695 9.08447 11.9745C9.08447 10.3794 10.3774 9.08643 11.9726 9.08643V9.08643Z"></path>
  </symbol>
  <symbol xmlns="http://www.w3.org/2000/svg" viewBox="0 0 25 25" id="footer_vkLogo">
    <path d="M12.9939 17.0076C12.9939 17.0076 13.2795 16.9777 13.4258 16.8293C13.5597 16.6935 13.5551 16.437 13.5551 16.437C13.5551 16.437 13.5373 15.2396 14.1263 15.0628C14.7068 14.8889 15.4523 16.2208 16.2433 16.7329C16.8409 17.1201 17.2945 17.0354 17.2945 17.0354L19.4085 17.0076C19.4085 17.0076 20.5138 16.9433 19.9898 16.1229C19.9464 16.0557 19.684 15.5157 18.4184 14.4067C17.0925 13.2458 17.2705 13.4336 18.8666 11.4252C19.8388 10.2022 20.2274 9.45554 20.1059 9.13627C19.9905 8.83089 19.2753 8.91198 19.2753 8.91198L16.8959 8.92587C16.8959 8.92587 16.7194 8.90322 16.5886 8.97701C16.4609 9.04933 16.378 9.2181 16.378 9.2181C16.378 9.2181 16.0018 10.1642 15.4995 10.9693C14.4398 12.6672 14.0164 12.7571 13.843 12.6519C13.4397 12.4056 13.5403 11.6641 13.5403 11.1373C13.5403 9.49134 13.8051 8.80532 13.0256 8.62779C12.7671 8.56861 12.5767 8.52989 11.9148 8.52331C11.0657 8.51528 10.3474 8.52623 9.94022 8.714C9.6693 8.83893 9.46031 9.11801 9.58803 9.13408C9.74516 9.15381 10.1012 9.22467 10.2901 9.46723C10.5339 9.78065 10.5254 10.4835 10.5254 10.4835C10.5254 10.4835 10.6655 12.421 10.198 12.6614C9.87752 12.8265 9.43786 12.4897 8.49274 10.9489C8.00895 10.1598 7.6436 9.28751 7.6436 9.28751C7.6436 9.28751 7.57316 9.12458 7.44699 9.03691C7.2945 8.93098 7.08164 8.8981 7.08164 8.8981L4.82062 8.91198C4.82062 8.91198 4.48081 8.92075 4.35619 9.06029C4.2455 9.18376 4.34768 9.4402 4.34768 9.4402C4.34768 9.4402 6.11794 13.3496 8.12274 15.32C9.96112 17.126 12.048 17.0076 12.048 17.0076H12.9939Z"></path>
  </symbol>
</svg>